<svg id="Layer_1" data-name="Layer 1" xmlns="http://www.w3.org/2000/svg" viewBox="0 0 1080 450"><defs><style>.cls-1{fill:#fff;}</style></defs><path class="cls-1" d="M21.69,329.61c.78,0,1.16-.41,1.16-1.24s-.38-1.23-1.16-1.23H1.16c-.77,0-1.16.43-1.16,1.31V430.93c0,.87.39,1.31,1.16,1.31H21.69c.78,0,1.16-.41,1.16-1.24s-.38-1.23-1.16-1.23H2.47V329.61Z"/><path class="cls-1" d="M105.39,328.45a1,1,0,0,0-1-.59H92.29c-.78,0-1.16.42-1.16,1.24s.38,1.24,1.16,1.24h9.46l-42.07,85a1.42,1.42,0,0,0-.14.59c0,.77.43,1.16,1.31,1.16a1,1,0,0,0,1-.73l14.41-29.26h55.46l14.56,29.26a1,1,0,0,0,1,.73c.87,0,1.31-.39,1.31-1.16a1.29,1.29,0,0,0-.15-.59Zm-27.8,56.19,26.49-53.43,26.5,53.43Z"/><path class="cls-1" d="M219.09,413.9H213.7q-7.12,0-7.13-5.24V375.61a13.94,13.94,0,0,0-4.08-10.41q-4.08-4-12.08-4-16.31,0-25.62,15v-6.55q0-7.71-9.61-7.71h-5.39c-.87,0-1.31.41-1.31,1.23s.44,1.24,1.31,1.24h5.39q7.13,0,7.13,5.24v46.15c0,.87.42,1.31,1.24,1.31s1.24-.44,1.24-1.31V380.56q9.17-16.89,25.62-16.89,6.56,0,10.12,3.13t3.56,8.81v33.05q0,7.71,9.61,7.71h5.39c.87,0,1.31-.41,1.31-1.24S220,413.9,219.09,413.9Z"/><path class="cls-1" d="M269.16,410.26a29.9,29.9,0,0,1-15.94,4.37q-8.81,0-12.15-3.13t-3.35-10.85V364.4h29.12c.77,0,1.16-.41,1.16-1.24s-.39-1.23-1.16-1.23H237.72v-23c0-.78-.41-1.17-1.24-1.17s-1.23.39-1.23,1.17v23H223.6c-.87,0-1.31.41-1.31,1.23s.44,1.24,1.31,1.24h11.65v36.25q0,8.88,4.07,12.67T253,417.1a33.56,33.56,0,0,0,17.46-4.66,1.18,1.18,0,0,0,.59-.87,2.55,2.55,0,0,0-.44-1.17C270.33,409.92,269.84,409.87,269.16,410.26Z"/><path class="cls-1" d="M339.48,413.9h-5.54q-7.12,0-7.13-5.24V375.61q0-6.84-4.37-10.63t-11.79-3.78q-16.15,0-25.62,15V308.5c0-.87-.39-1.31-1.16-1.31H270c-.88,0-1.31.42-1.31,1.24s.43,1.24,1.31,1.24h12.52V415.79c0,.87.41,1.31,1.23,1.31s1.24-.44,1.24-1.31V380.56q9.17-16.89,25.62-16.89,6.56,0,10.12,3.13t3.57,8.81v33.05q0,7.71,9.6,7.71h5.54c.77,0,1.16-.41,1.16-1.24S340.25,413.9,339.48,413.9Z"/><path class="cls-1" d="M374.41,361.2q-11.79,0-19.29,7.79t-7.49,20.16q0,12.38,7.49,20.16t19.29,7.79q11.79,0,19.29-7.79t7.5-20.16q0-12.37-7.5-20.16T374.41,361.2ZM392,407.49q-6.76,7.14-17.54,7.14t-17.54-7.14q-6.76-7.12-6.77-18.34t6.77-18.34q6.76-7.14,17.54-7.14T392,370.81q6.78,7.13,6.77,18.34T392,407.49Z"/><path class="cls-1" d="M478.93,416.37c.88,0,1.31-.41,1.31-1.24s-.43-1.23-1.31-1.23h-5.38q-7.14,0-7.14-5.24V375.61a14,14,0,0,0-4.07-10.41q-4.08-4-12.09-4-16.31,0-25.62,15v-6.55q0-7.71-9.61-7.71h-5.38c-.88,0-1.31.41-1.31,1.23s.43,1.24,1.31,1.24H415q7.14,0,7.14,5.24v46.15c0,.87.41,1.31,1.23,1.31s1.24-.44,1.24-1.31V380.56q9.18-16.89,25.62-16.89,6.56,0,10.12,3.13t3.57,8.81v33.05q0,7.71,9.61,7.71Z"/><path class="cls-1" d="M534.4,361.2c-.39,0-.68.24-.88.73L508.77,413,484,361.93c-.2-.49-.44-.73-.73-.73a2.79,2.79,0,0,0-1.24.44c-.53.29-.61.77-.22,1.45l25.62,52.7-5.67,11.79q-4.95,10.05-10.27,15a19,19,0,0,1-13.46,4.95l-4.66-.44c-.87,0-1.31.39-1.31,1.16s.51,1.26,1.53,1.46a24.72,24.72,0,0,0,4.29.29q9.46,0,15.29-5.53T504,428.75l31.74-65.66a2.56,2.56,0,0,0,.14-.73C535.85,361.59,535.36,361.2,534.4,361.2Z"/><path class="cls-1" d="M654.06,375.18h-26.5c-.87,0-1.31.41-1.31,1.23s.44,1.24,1.31,1.24h25.19v25q-11.65,11.94-29.63,11.94t-29-11.72q-11-11.71-11-30.79t11-30.79q11-11.71,27.88-11.72T650.85,336v12.37c0,.87.42,1.31,1.24,1.31s1.24-.44,1.24-1.31v-13.1q0-.74-1-1.17-12.37-7-30.06-7t-29.63,12.3q-11.93,12.3-11.93,32.31t11.57,32.69q11.58,12.66,30,12.66t30.5-11.35v10.19c0,.77.41,1.16,1.23,1.16s1.24-.39,1.24-1.16v-39.6A1,1,0,0,0,654.06,375.18Z"/><path class="cls-1" d="M680,361.93H666.14q-1.17,0-1.17,1.23c0,.83.39,1.24,1.17,1.24H678.8v51.39c0,.87.41,1.31,1.24,1.31s1.24-.44,1.24-1.31V363.24A1.16,1.16,0,0,0,680,361.93Z"/><path class="cls-1" d="M679.53,333.25a2.22,2.22,0,0,0-2.18,2.18,2.16,2.16,0,0,0,3.71,1.53,2.07,2.07,0,0,0,.66-1.53,2.1,2.1,0,0,0-.66-1.53A2.13,2.13,0,0,0,679.53,333.25Z"/><path class="cls-1" d="M755.67,413.9h-5.54q-7.12,0-7.13-5.24v-31.3q0-8.88-5.46-12.52t-16.81-3.64q-11.36,0-18.49,4.22a1,1,0,0,0-.58,1v13.1q0,1.17,1.23,1.17c.83,0,1.24-.39,1.24-1.17V367.17a33.84,33.84,0,0,1,15.87-3.5q9.16,0,14.27,2.19,6.26,2.63,6.26,11.5v13.39q-12.53-3.35-21.62-3.35t-14.78,3.86a12.52,12.52,0,0,0-5.68,11q0,7.14,4.44,11t12,3.86q16.17,0,25.63-14.85v6.41q0,7.71,9.6,7.71h5.54c.77,0,1.16-.41,1.16-1.24S756.44,413.9,755.67,413.9Zm-15.14-16q-8.74,16.75-25.63,16.75-6.54,0-10.26-3.21t-3.71-9.31a10.07,10.07,0,0,1,5.38-9.25q5.38-3.12,13.76-3.13t20.46,3.35Z"/><path class="cls-1" d="M826.56,413.9h-5.39q-7.12,0-7.13-5.24V375.61A13.94,13.94,0,0,0,810,365.2q-4.07-4-12.08-4-16.3,0-25.62,15v-6.55q0-7.71-9.61-7.71h-5.38c-.88,0-1.31.41-1.31,1.23s.43,1.24,1.31,1.24h5.38q7.14,0,7.14,5.24v46.15c0,.87.41,1.31,1.23,1.31s1.24-.44,1.24-1.31V380.56q9.16-16.89,25.62-16.89,6.55,0,10.12,3.13t3.57,8.81v33.05q0,7.71,9.6,7.71h5.39c.87,0,1.31-.41,1.31-1.24S827.43,413.9,826.56,413.9Z"/><path class="cls-1" d="M898.62,413.9h-5.39q-7.12,0-7.13-5.24V375.61A13.94,13.94,0,0,0,882,365.2q-4.08-4-12.08-4-16.31,0-25.62,15v-6.55q0-7.71-9.61-7.71h-5.39c-.87,0-1.31.41-1.31,1.23s.44,1.24,1.31,1.24h5.39q7.14,0,7.13,5.24v46.15c0,.87.42,1.31,1.24,1.31s1.24-.44,1.24-1.31V380.56q9.16-16.89,25.62-16.89,6.55,0,10.12,3.13t3.56,8.81v33.05q0,7.71,9.61,7.71h5.39c.87,0,1.31-.41,1.31-1.24S899.49,413.9,898.62,413.9Z"/><path class="cls-1" d="M955.25,389c.77,0,1.16-.43,1.16-1.31q0-12.22-5.68-19.36t-17.47-7.13q-11.79,0-19.07,7.71t-7.27,20q0,12.3,7,20.24t19.36,7.93q15.43,0,22.71-11.65a1.12,1.12,0,0,0-.43-1.67,1.16,1.16,0,0,0-1.75.36q-6.56,10.49-20.53,10.49-10.92,0-17.39-6.92t-6.48-18.56V389Zm-38.58-19.07q6.41-6.26,16.74-6.26t15.43,6.26q5.1,6.27,5.1,16.6H909.39Q910.26,376.2,916.67,369.93Z"/><path class="cls-1" d="M989.89,413.9H984.5q-7.12,0-7.13-5.24V308.5a1.16,1.16,0,0,0-1.31-1.31H962.23c-.77,0-1.16.42-1.16,1.24s.39,1.24,1.16,1.24H974.9v99q0,7.71,9.6,7.71h5.39c.87,0,1.31-.41,1.31-1.24S990.76,413.9,989.89,413.9Z"/><path class="cls-1" d="M1018.72,413.9h-5.39q-7.14,0-7.13-5.24V308.5a1.16,1.16,0,0,0-1.31-1.31H991.06c-.78,0-1.17.42-1.17,1.24s.39,1.24,1.17,1.24h12.66v99q0,7.71,9.61,7.71h5.39c.87,0,1.3-.41,1.3-1.24S1019.59,413.9,1018.72,413.9Z"/><path class="cls-1" d="M1078.84,327.14h-20.53c-.78,0-1.16.41-1.16,1.23s.38,1.24,1.16,1.24h19.22V429.77h-19.22c-.78,0-1.16.41-1.16,1.23s.38,1.24,1.16,1.24h20.53c.77,0,1.16-.44,1.16-1.31V328.45C1080,327.57,1079.61,327.14,1078.84,327.14Z"/><path class="cls-1" d="M485.87,69.13c0-.75-.35-1.12-1-1.12a2.84,2.84,0,0,0-1.56.34l-53.61,33.84a1.54,1.54,0,0,0,0,2.77l53.61,33.83a1.78,1.78,0,0,0,1,.35,1.22,1.22,0,0,0,.95-.52,1.73,1.73,0,0,0,.44-1.13c0-.4-.29-.78-.87-1.13l-52.22-32.79,52.22-32.79A1.72,1.72,0,0,0,485.87,69.13Z"/><path class="cls-1" d="M575.91,38.17a1.91,1.91,0,0,0-1.21.69L502.87,142.09a2.29,2.29,0,0,0-.52,1.39c0,.46.52.87,1.56,1.21a1.91,1.91,0,0,0,1.56-1L577.3,40.42a1.7,1.7,0,0,0,.35-.87Q577.65,38.17,575.91,38.17Z"/><path class="cls-1" d="M650.17,102.19,596.56,68.35A2.87,2.87,0,0,0,595,68c-.7,0-1,.37-1,1.12a1.71,1.71,0,0,0,1,1.65l52.22,32.79L595,136.36c-.58.35-.87.73-.87,1.13a1.72,1.72,0,0,0,.43,1.13,1.24,1.24,0,0,0,1,.52,1.83,1.83,0,0,0,1-.35L650.17,105a1.66,1.66,0,0,0,.69-1.39A1.64,1.64,0,0,0,650.17,102.19Z"/><path class="cls-1" d="M697.4,0H382.6a19.86,19.86,0,0,0-19.83,19.84V180.63a19.86,19.86,0,0,0,19.83,19.84H506.27V253H450a1.24,1.24,0,0,0,0,2.47H630a1.24,1.24,0,1,0,0-2.47H573.74V200.47H697.4a19.86,19.86,0,0,0,19.84-19.84V19.84A19.86,19.86,0,0,0,697.4,0ZM571.27,253H508.74V200.47h62.53Zm143.5-72.37A17.39,17.39,0,0,1,697.4,198H382.6a17.38,17.38,0,0,1-17.36-17.37V19.84A17.38,17.38,0,0,1,382.6,2.47H697.4a17.39,17.39,0,0,1,17.37,17.37Z"/></svg>