<svg id="Layer_1" data-name="Layer 1" xmlns="http://www.w3.org/2000/svg" viewBox="0 0 1080 778.37"><defs><style>.cls-1{fill:#fff;}</style></defs><path class="cls-1" d="M375.07,210.64c0-2.29-1.05-3.44-3.17-3.44a8.66,8.66,0,0,0-4.75,1.06L203.8,311.34a4.71,4.71,0,0,0,0,8.46L367.15,422.88a5.62,5.62,0,0,0,3.17,1.06,3.77,3.77,0,0,0,2.9-1.59,5.28,5.28,0,0,0,1.33-3.44c0-1.23-.89-2.38-2.65-3.43L212.79,315.57,371.9,215.66A5.25,5.25,0,0,0,375.07,210.64Z"/><path class="cls-1" d="M649.42,116.28c-1,0-2.29.71-3.7,2.12L426.87,432.92a7.09,7.09,0,0,0-1.58,4.23c0,1.41,1.58,2.64,4.76,3.7q2.64,0,4.75-3.17L653.65,123.15a5.14,5.14,0,0,0,1.06-2.64C654.71,117.69,652.94,116.28,649.42,116.28Z"/><path class="cls-1" d="M875.67,311.34,712.32,208.26a8.67,8.67,0,0,0-4.76-1.06q-3.16,0-3.17,3.44a5.26,5.26,0,0,0,3.17,5l159.12,99.91L707.56,415.48c-1.76,1-2.64,2.2-2.64,3.43a5.27,5.27,0,0,0,1.32,3.44,3.78,3.78,0,0,0,2.91,1.59,5.62,5.62,0,0,0,3.17-1.06L875.67,319.8a5.3,5.3,0,0,0,0-8.46Z"/><path class="cls-1" d="M1019.55,0H60.44A60.5,60.5,0,0,0,0,60.44V550.35a60.5,60.5,0,0,0,60.44,60.44H437.22V770.84H265.79a3.77,3.77,0,1,0,0,7.53H814.21a3.77,3.77,0,1,0,0-7.53H642.78V610.79h376.77A60.51,60.51,0,0,0,1080,550.35V60.44A60.51,60.51,0,0,0,1019.55,0ZM635.26,770.84H444.74V610.79H635.26Zm437.21-220.49a53,53,0,0,1-52.92,52.92H60.44A53,53,0,0,1,7.52,550.35V60.44A53,53,0,0,1,60.44,7.52h959.11a53,53,0,0,1,52.92,52.92Z"/></svg>