<svg id="Layer_1" data-name="Layer 1" xmlns="http://www.w3.org/2000/svg" viewBox="0 0 1500 255.47"><defs><style>.cls-1{fill:#fff;}</style></defs><path class="cls-1" d="M441.69,53.51c.78,0,1.16-.41,1.16-1.24S442.47,51,441.69,51H421.16c-.77,0-1.16.44-1.16,1.32V154.83c0,.87.39,1.31,1.16,1.31h20.53c.78,0,1.16-.41,1.16-1.24s-.38-1.24-1.16-1.24H422.47V53.51Z"/><path class="cls-1" d="M525.39,52.35a1,1,0,0,0-1-.59H512.29c-.78,0-1.16.42-1.16,1.24s.38,1.24,1.16,1.24h9.46l-42.07,85a1.42,1.42,0,0,0-.14.59c0,.77.43,1.16,1.31,1.16a1,1,0,0,0,1-.73L496.28,111h55.46l14.56,29.26a1,1,0,0,0,1,.73c.87,0,1.31-.39,1.31-1.16a1.29,1.29,0,0,0-.15-.59Zm-27.8,56.19,26.49-53.43,26.5,53.43Z"/><path class="cls-1" d="M639.09,137.8H633.7q-7.12,0-7.13-5.24v-33a13.94,13.94,0,0,0-4.08-10.41q-4.08-4-12.08-4-16.3,0-25.62,15V93.54q0-7.71-9.61-7.71h-5.39c-.87,0-1.31.41-1.31,1.23s.44,1.24,1.31,1.24h5.39q7.13,0,7.13,5.24v46.15c0,.87.42,1.31,1.24,1.31s1.24-.44,1.24-1.31V104.46Q594,87.57,610.41,87.57q6.55,0,10.12,3.13t3.56,8.81v33.05q0,7.71,9.61,7.71h5.39c.87,0,1.31-.41,1.31-1.24S640,137.8,639.09,137.8Z"/><path class="cls-1" d="M689.16,134.16a29.9,29.9,0,0,1-15.94,4.37q-8.81,0-12.15-3.13t-3.35-10.85V88.3h29.12c.77,0,1.16-.41,1.16-1.24s-.39-1.23-1.16-1.23H657.72v-23c0-.78-.41-1.17-1.24-1.17s-1.23.39-1.23,1.17v23H643.6c-.87,0-1.31.41-1.31,1.23s.44,1.24,1.31,1.24h11.65v36.25q0,8.88,4.07,12.67T673,141a33.62,33.62,0,0,0,17.47-4.66,1.19,1.19,0,0,0,.58-.87,2.55,2.55,0,0,0-.44-1.17C690.33,133.82,689.84,133.77,689.16,134.16Z"/><path class="cls-1" d="M759.48,137.8h-5.54q-7.12,0-7.13-5.24v-33q0-6.84-4.37-10.63T730.65,85.1q-16.15,0-25.62,15V32.4c0-.87-.39-1.31-1.16-1.31H690c-.88,0-1.31.42-1.31,1.24s.43,1.24,1.31,1.24h12.52V139.69c0,.87.41,1.31,1.23,1.31s1.24-.44,1.24-1.31V104.46q9.16-16.89,25.62-16.89,6.55,0,10.12,3.13t3.57,8.81v33.05q0,7.71,9.6,7.71h5.54c.77,0,1.16-.41,1.16-1.24S760.25,137.8,759.48,137.8Z"/><path class="cls-1" d="M794.41,85.1q-11.79,0-19.29,7.79t-7.49,20.16q0,12.38,7.49,20.16T794.41,141q11.79,0,19.29-7.79t7.5-20.16q0-12.37-7.5-20.16T794.41,85.1ZM812,131.39q-6.76,7.14-17.54,7.14t-17.54-7.14q-6.76-7.12-6.77-18.34t6.77-18.34q6.76-7.14,17.54-7.14T812,94.71q6.78,7.13,6.77,18.34T812,131.39Z"/><path class="cls-1" d="M898.93,140.27c.88,0,1.31-.41,1.31-1.24s-.43-1.23-1.31-1.23h-5.38q-7.14,0-7.14-5.24v-33a14,14,0,0,0-4.07-10.41q-4.08-4-12.09-4-16.31,0-25.62,15V93.54q0-7.71-9.61-7.71h-5.38c-.88,0-1.31.41-1.31,1.23s.43,1.24,1.31,1.24H835q7.14,0,7.14,5.24v46.15c0,.87.41,1.31,1.23,1.31s1.24-.44,1.24-1.31V104.46q9.18-16.89,25.62-16.89,6.56,0,10.12,3.13t3.57,8.81v33.05q0,7.71,9.61,7.71Z"/><path class="cls-1" d="M954.4,85.1c-.39,0-.68.24-.88.73l-24.75,51.09L904,85.83c-.2-.49-.44-.73-.73-.73a2.79,2.79,0,0,0-1.24.44c-.53.29-.61.77-.22,1.45l25.62,52.7-5.67,11.79q-4.95,10.05-10.27,15a19,19,0,0,1-13.46,5L893.4,171c-.87,0-1.31.39-1.31,1.16s.51,1.26,1.53,1.46a24.72,24.72,0,0,0,4.29.29q9.47,0,15.29-5.53T924,152.65L955.71,87a2.56,2.56,0,0,0,.14-.73C955.85,85.49,955.36,85.1,954.4,85.1Z"/><path class="cls-1" d="M1074.06,99.07h-26.5c-.87,0-1.31.42-1.31,1.24s.44,1.24,1.31,1.24h25.19v25q-11.65,11.94-29.63,11.94t-29-11.72q-11-11.73-11-30.79t11-30.79q11-11.72,27.88-11.72t28.82,6.41V72.29c0,.87.42,1.31,1.24,1.31s1.24-.44,1.24-1.31V59.19q0-.73-1-1.17-12.37-7-30.06-7t-29.63,12.31q-11.93,12.3-11.93,32.31t11.57,32.68q11.58,12.67,30,12.67t30.5-11.35v10.19c0,.77.41,1.16,1.23,1.16s1.24-.39,1.24-1.16v-39.6A1,1,0,0,0,1074.06,99.07Z"/><path class="cls-1" d="M1100,85.83h-13.83q-1.17,0-1.17,1.23c0,.83.39,1.24,1.17,1.24h12.66v51.39c0,.87.41,1.31,1.24,1.31s1.24-.44,1.24-1.31V87.14A1.16,1.16,0,0,0,1100,85.83Z"/><path class="cls-1" d="M1099.53,57.15a2.16,2.16,0,0,0-1.53,3.71,2.16,2.16,0,1,0,3.06-3.06A2.13,2.13,0,0,0,1099.53,57.15Z"/><path class="cls-1" d="M1175.67,137.8h-5.54q-7.12,0-7.13-5.24v-31.3q0-8.88-5.46-12.52t-16.81-3.64q-11.36,0-18.49,4.22a1,1,0,0,0-.58,1v13.1q0,1.17,1.23,1.17c.83,0,1.24-.39,1.24-1.17V91.07a33.84,33.84,0,0,1,15.87-3.5q9.16,0,14.27,2.19,6.26,2.61,6.26,11.5v13.39q-12.52-3.34-21.62-3.35t-14.78,3.86a12.52,12.52,0,0,0-5.68,11q0,7.14,4.44,11t12,3.86q16.17,0,25.63-14.85v6.41q0,7.71,9.6,7.71h5.54c.77,0,1.16-.41,1.16-1.24S1176.44,137.8,1175.67,137.8Zm-15.14-16q-8.74,16.75-25.63,16.75-6.54,0-10.26-3.21t-3.71-9.31a10.07,10.07,0,0,1,5.38-9.25q5.39-3.12,13.76-3.13t20.46,3.35Z"/><path class="cls-1" d="M1246.56,137.8h-5.39q-7.12,0-7.13-5.24v-33A13.94,13.94,0,0,0,1230,89.1q-4.07-4-12.08-4-16.31,0-25.62,15V93.54q0-7.71-9.61-7.71h-5.38c-.88,0-1.31.41-1.31,1.23s.43,1.24,1.31,1.24h5.38q7.14,0,7.14,5.24v46.15c0,.87.41,1.31,1.23,1.31s1.24-.44,1.24-1.31V104.46q9.16-16.89,25.62-16.89,6.55,0,10.12,3.13t3.57,8.81v33.05q0,7.71,9.6,7.71h5.39c.87,0,1.31-.41,1.31-1.24S1247.43,137.8,1246.56,137.8Z"/><path class="cls-1" d="M1318.62,137.8h-5.39q-7.12,0-7.13-5.24v-33A13.94,13.94,0,0,0,1302,89.1q-4.08-4-12.08-4-16.31,0-25.62,15V93.54q0-7.71-9.61-7.71h-5.39c-.87,0-1.31.41-1.31,1.23s.44,1.24,1.31,1.24h5.39q7.14,0,7.13,5.24v46.15c0,.87.42,1.31,1.24,1.31s1.24-.44,1.24-1.31V104.46q9.17-16.89,25.62-16.89,6.55,0,10.12,3.13t3.56,8.81v33.05q0,7.71,9.61,7.71h5.39c.87,0,1.31-.41,1.31-1.24S1319.49,137.8,1318.62,137.8Z"/><path class="cls-1" d="M1375.25,112.9c.77,0,1.16-.43,1.16-1.31q0-12.23-5.68-19.36t-17.47-7.13q-11.79,0-19.07,7.71t-7.27,20q0,12.3,7,20.24t19.36,7.93q15.43,0,22.71-11.65a1.12,1.12,0,0,0-.43-1.67,1.16,1.16,0,0,0-1.75.36q-6.55,10.49-20.53,10.49-10.9,0-17.39-6.92t-6.48-18.56v-.15Zm-38.58-19.07q6.4-6.26,16.74-6.26t15.43,6.26q5.1,6.27,5.1,16.6h-44.55Q1330.26,100.1,1336.67,93.83Z"/><path class="cls-1" d="M1409.89,137.8h-5.39q-7.12,0-7.13-5.24V32.4a1.16,1.16,0,0,0-1.31-1.31h-13.83c-.77,0-1.16.42-1.16,1.24s.39,1.24,1.16,1.24h12.67v99q0,7.71,9.6,7.71h5.39c.87,0,1.31-.41,1.31-1.24S1410.76,137.8,1409.89,137.8Z"/><path class="cls-1" d="M1438.72,137.8h-5.39q-7.14,0-7.13-5.24V32.4a1.16,1.16,0,0,0-1.31-1.31h-13.83c-.78,0-1.17.42-1.17,1.24s.39,1.24,1.17,1.24h12.66v99q0,7.71,9.61,7.71h5.39c.87,0,1.3-.41,1.3-1.24S1439.59,137.8,1438.72,137.8Z"/><path class="cls-1" d="M1498.84,51h-20.53c-.78,0-1.16.42-1.16,1.24s.38,1.24,1.16,1.24h19.22V153.66h-19.22c-.78,0-1.16.42-1.16,1.24s.38,1.24,1.16,1.24h20.53c.77,0,1.16-.44,1.16-1.31V52.35C1500,51.47,1499.61,51,1498.84,51Z"/><path class="cls-1" d="M123.1,69.13c0-.75-.34-1.12-1-1.12a2.87,2.87,0,0,0-1.56.34L66.89,102.19a1.54,1.54,0,0,0,0,2.77l53.61,33.83a1.83,1.83,0,0,0,1,.35,1.24,1.24,0,0,0,1-.52,1.77,1.77,0,0,0,.43-1.13c0-.4-.29-.78-.87-1.13L69.84,103.57l52.22-32.79A1.71,1.71,0,0,0,123.1,69.13Z"/><path class="cls-1" d="M213.15,38.17a1.9,1.9,0,0,0-1.22.69L140.11,142.09a2.29,2.29,0,0,0-.52,1.39c0,.46.52.87,1.56,1.21a1.92,1.92,0,0,0,1.56-1L214.54,40.42a1.67,1.67,0,0,0,.34-.87C214.88,38.63,214.3,38.17,213.15,38.17Z"/><path class="cls-1" d="M287.4,102.19,233.79,68.35a2.82,2.82,0,0,0-1.56-.34c-.69,0-1,.37-1,1.12a1.72,1.72,0,0,0,1,1.65l52.22,32.79-52.22,32.79c-.58.35-.87.73-.87,1.13a1.73,1.73,0,0,0,.44,1.13,1.24,1.24,0,0,0,.95.52,1.78,1.78,0,0,0,1-.35L287.4,105a1.67,1.67,0,0,0,.7-1.39A1.65,1.65,0,0,0,287.4,102.19Z"/><path class="cls-1" d="M334.63,0H19.84A19.86,19.86,0,0,0,0,19.84V180.63a19.86,19.86,0,0,0,19.84,19.84H143.5V253H87.23a1.24,1.24,0,0,0,0,2.47h180a1.24,1.24,0,1,0,0-2.47H211V200.47H334.63a19.86,19.86,0,0,0,19.84-19.84V19.84A19.86,19.86,0,0,0,334.63,0ZM208.5,253H146V200.47H208.5ZM352,180.63A17.39,17.39,0,0,1,334.63,198H19.84A17.39,17.39,0,0,1,2.47,180.63V19.84A17.39,17.39,0,0,1,19.84,2.47H334.63A17.39,17.39,0,0,1,352,19.84Z"/></svg>