<svg id="Layer_1" data-name="Layer 1" xmlns="http://www.w3.org/2000/svg" viewBox="0 0 1080 1080"><defs><style>.cls-1{fill:#05668d;}.cls-2{fill:#fff;}</style></defs><rect class="cls-1" width="1080" height="1080"/><path class="cls-2" d="M414.31,570.74a9.1,9.1,0,0,1-5.07-1.58l-120.9-76.3a8.47,8.47,0,0,1,0-14.78l120.91-76.3a11.14,11.14,0,0,1,6.23-1.58c4.33,0,7.35,3.1,7.35,7.54a8.9,8.9,0,0,1-4.86,8.07L307,485.47l111.11,69.77c3.73,2.24,4.3,5.21,4.3,6.78a8.9,8.9,0,0,1-2.13,5.74A7.79,7.79,0,0,1,414.31,570.74Z"/><path class="cls-2" d="M417.83,407.74c0-1.69-.78-2.54-2.35-2.54A6.42,6.42,0,0,0,412,406L291,482.34a3.48,3.48,0,0,0,0,6.26L412,565a4.22,4.22,0,0,0,2.35.78,2.8,2.8,0,0,0,2.15-1.17,3.93,3.93,0,0,0,1-2.55c0-.91-.65-1.76-2-2.54l-117.86-74,117.86-74A3.9,3.9,0,0,0,417.83,407.74Z"/><path class="cls-2" d="M457.74,583.27,457,583c-5.74-1.91-6.94-5.12-6.94-7.48a10.09,10.09,0,0,1,2.11-6L614.46,336.2l.31-.32a9,9,0,0,1,6.28-3c6.16,0,8.92,4.08,8.92,8.13a8.46,8.46,0,0,1-1.62,4.72L466.18,578.78c-2.47,3.7-5.52,4.49-7.63,4.49Z"/><path class="cls-2" d="M621.05,337.85a4.32,4.32,0,0,0-2.74,1.57L456.2,572.4a5.21,5.21,0,0,0-1.17,3.13q0,1.58,3.52,2.74c1.31,0,2.48-.78,3.53-2.35l162.11-233a3.79,3.79,0,0,0,.78-2C625,338.9,623.66,337.85,621.05,337.85Z"/><path class="cls-2" d="M665.3,570.74a7.76,7.76,0,0,1-6-3,8.87,8.87,0,0,1-2.12-5.73c0-1.56.56-4.52,4.33-6.8l111.08-69.75L661.64,415.81a8.89,8.89,0,0,1-4.87-8.07c0-4.44,3-7.54,7.35-7.54a11.14,11.14,0,0,1,6.23,1.58l121.13,76.44.17.13a8.9,8.9,0,0,1,0,14.24l-.16.13L670.37,569.16A9.12,9.12,0,0,1,665.3,570.74Z"/><path class="cls-2" d="M788.64,482.34,667.65,406a6.46,6.46,0,0,0-3.53-.78c-1.57,0-2.35.85-2.35,2.54a3.9,3.9,0,0,0,2.35,3.73l117.86,74-117.86,74c-1.31.78-2,1.63-2,2.54a3.93,3.93,0,0,0,1,2.55,2.8,2.8,0,0,0,2.16,1.17,4.25,4.25,0,0,0,2.35-.78l121-76.36a3.91,3.91,0,0,0,0-6.26Z"/><path class="cls-2" d="M336.88,833.28a7.79,7.79,0,1,1,0-15.57h122V709.15H184.77A49.82,49.82,0,0,1,135,659.38V296.49a49.82,49.82,0,0,1,49.77-49.77H895.23A49.82,49.82,0,0,1,945,296.49V659.38a49.82,49.82,0,0,1-49.77,49.77H621.14V817.71h122a7.79,7.79,0,1,1,0,15.57Zm268.68-15.57V709.15H474.44V817.71ZM184.77,262.29a34.24,34.24,0,0,0-34.2,34.2V659.38a34.24,34.24,0,0,0,34.2,34.2H895.23a34.23,34.23,0,0,0,34.19-34.2V296.49a34.23,34.23,0,0,0-34.19-34.2Z"/><path class="cls-2" d="M895.23,251.72H184.77A44.82,44.82,0,0,0,140,296.49V659.38a44.82,44.82,0,0,0,44.77,44.77H463.86V822.71h-127a2.79,2.79,0,1,0,0,5.57H743.12a2.79,2.79,0,1,0,0-5.57h-127V704.15H895.23A44.82,44.82,0,0,0,940,659.38V296.49A44.82,44.82,0,0,0,895.23,251.72Zm-284.67,571H469.44V704.15H610.56ZM934.42,659.38a39.24,39.24,0,0,1-39.19,39.2H184.77a39.24,39.24,0,0,1-39.2-39.2V296.49a39.24,39.24,0,0,1,39.2-39.2H895.23a39.24,39.24,0,0,1,39.19,39.2Z"/></svg>